<svg id="Layer_1" style="enable-background:new 0 0 24 24" version="1.1" viewBox="0 0 24 24" xml:space="preserve" xmlns="http://www.w3.org/2000/svg"><g fill="#4c3320"><path d="M10.79 12.71c.2.2.45.29.71.29s.51-.1.71-.29l2-2A.996.996 0 1 0 12.8 9.3l-1.29 1.29-.29-.29a.996.996 0 1 0-1.41 1.41l.98 1z"/><path d="M2.19 17.58c.19.27.49.42.81.42h2c.55 0 1-.45 1-1s-.45-1-1-1h-.61l.56-1.68c.07-.21.07-.43 0-.63L4.39 12H6v3c0 .55.45 1 1 1v1c0 .27.11.52.29.71l4 4c.2.19.45.29.71.29s.51-.1.71-.29l4-4c.18-.19.29-.44.29-.71v-1c.55 0 1-.45 1-1v-3h1.61l-.56 1.68c-.07.21-.07.43 0 .63l.56 1.69H19c-.55 0-1 .45-1 1s.45 1 1 1h2c.32 0 .62-.15.81-.42a1 1 0 0 0 .14-.9l-.9-2.68.89-2.68c.1-.31.05-.64-.14-.9A.952.952 0 0 0 21 10h-3V7c0-.55-.45-1-1-1V4c0-.46-.31-.86-.76-.97l-4-1a.975.975 0 0 0-.48 0l-4 1C7.31 3.14 7 3.54 7 4v2c-.55 0-1 .45-1 1v3H3c-.32 0-.62.15-.81.42a1 1 0 0 0-.14.9l.9 2.68-.89 2.68c-.11.31-.06.64.13.9zM16 8v6H8V8h8zm-1 8.59-3 3-3-3V16h6v.59zM9 4.78l3-.75 3 .75V6H9V4.78z"/></g></svg>