<svg id="Layer_1" style="enable-background:new 0 0 24 24" version="1.1" viewBox="0 0 24 24" xml:space="preserve" xmlns="http://www.w3.org/2000/svg"><g fill="#4c3320"><path d="m16.15 5.47-4.06 6.49-.2-.41a1.01 1.01 0 0 0-1.34-.45c-.49.25-.69.85-.45 1.34l1 2c.16.32.49.53.85.55H12c.34 0 .67-.18.85-.47l5-8c.29-.47.15-1.08-.32-1.38-.47-.28-1.09-.14-1.38.33z"/><path d="m5.95 15.23-.93 5.61c-.06.37.09.75.4.97.31.22.71.25 1.05.08L12 18.98l5.54 2.91c.14.07.3.11.46.11.21 0 .41-.06.59-.19.31-.22.46-.6.4-.97l-.93-5.61 3.78-5.67c.2-.31.22-.7.05-1.03S21.37 8 21 8h-2c-.55 0-1 .45-1 1s.45 1 1 1h.13l-2.96 4.45c-.14.21-.2.47-.15.72l.67 4.01-4.22-2.21c-.29-.15-.64-.15-.93 0l-4.22 2.21.67-4.01c.04-.25-.01-.51-.15-.72L4.87 10H9c.38 0 .72-.21.89-.55l1.97-3.94.31.84a.996.996 0 1 0 1.87-.69l-1.11-3a.98.98 0 0 0-.88-.66c-.41-.02-.77.2-.95.55L8.38 8H3c-.37 0-.71.2-.88.53s-.16.72.05 1.02l3.78 5.68z"/></g></svg>