<svg id="Layer_1" style="enable-background:new 0 0 24 24" version="1.1" viewBox="0 0 24 24" xml:space="preserve" xmlns="http://www.w3.org/2000/svg"><g fill="#4c3320"><path d="M5 22h13c.55 0 1-.45 1-1v-1c0-.55-.45-1-1-1s-1 .45-1 1H6V4h6v5c0 .55.45 1 1 1h4c0 .55.45 1 1 1s1-.45 1-1V9c0-.13-.03-.25-.07-.36a.746.746 0 0 0-.07-.12c-.03-.05-.05-.11-.09-.16l-5-6-.03-.03c-.07-.07-.15-.13-.23-.18-.03-.02-.06-.05-.1-.06A.946.946 0 0 0 13 2H5c-.55 0-1 .45-1 1v18c0 .55.45 1 1 1zm9-16.24L15.87 8H14V5.76z"/><path d="M8 10h2c.55 0 1-.45 1-1s-.45-1-1-1H8c-.55 0-1 .45-1 1s.45 1 1 1zM14 11H8c-.55 0-1 .45-1 1s.45 1 1 1h6c.55 0 1-.45 1-1s-.45-1-1-1zM8 16h4c.55 0 1-.45 1-1s-.45-1-1-1H8c-.55 0-1 .45-1 1s.45 1 1 1zM8 19h6c.55 0 1-.45 1-1s-.45-1-1-1H8c-.55 0-1 .45-1 1s.45 1 1 1zM20.71 16.29c-.01 0-.01 0 0 0 .18-.39.29-.83.29-1.29 0-1.66-1.34-3-3-3s-3 1.34-3 3 1.34 3 3 3c.46 0 .9-.11 1.29-.3 0 0 0 .01.01.01l1 1c.19.19.44.29.7.29s.51-.1.71-.29a.996.996 0 0 0 0-1.41l-1-1.01zM18 16c-.55 0-1-.45-1-1s.45-1 1-1 1 .45 1 1-.45 1-1 1z"/></g></svg>