<svg id="Layer_1" style="enable-background:new 0 0 24 24" version="1.1" viewBox="0 0 24 24" xml:space="preserve" xmlns="http://www.w3.org/2000/svg"><g fill="#4c3320"><path d="M6.11 9.5c.27 0 .52.18.59.45.12.45.3.88.53 1.28.14.24.1.54-.1.73-.24.24-.24.62 0 .86l.55.55c.24.24.62.24.86 0a.62.62 0 0 1 .73-.1c.4.23.83.41 1.28.53.26.07.45.31.45.59 0 .34.27.61.61.61h.78c.34 0 .61-.27.61-.61 0-.27.18-.52.45-.59.45-.12.88-.3 1.28-.53.24-.14.54-.1.73.1.24.24.62.24.86 0l.55-.55c.24-.24.24-.62 0-.86a.62.62 0 0 1-.1-.73c.23-.4.41-.83.53-1.28.07-.26.31-.45.59-.45.34 0 .61-.27.61-.61v-.78c0-.34-.27-.61-.61-.61a.61.61 0 0 1-.59-.45c-.12-.45-.3-.88-.53-1.28-.14-.24-.1-.54.1-.73.24-.24.24-.62 0-.86l-.55-.55a.604.604 0 0 0-.86 0 .62.62 0 0 1-.73.1c-.4-.23-.83-.41-1.28-.53a.61.61 0 0 1-.45-.59c0-.34-.27-.61-.61-.61h-.78c-.34 0-.61.27-.61.61 0 .27-.18.52-.45.59-.45.12-.88.3-1.28.53-.24.14-.54.1-.73-.1a.604.604 0 0 0-.86 0l-.55.55c-.24.24-.24.62 0 .86.19.19.23.49.1.73-.23.4-.41.83-.53 1.28a.61.61 0 0 1-.59.45c-.34 0-.61.27-.61.61v.78c0 .34.27.61.61.61zm2.46-1.69a3.48 3.48 0 0 1 2.75-2.75 3.508 3.508 0 0 1 4.12 4.12 3.48 3.48 0 0 1-2.75 2.75 3.501 3.501 0 0 1-4.12-4.12z"/><path d="m2.76 17.97 3.51.88 1.04 2.53c.13.31.41.54.74.6.34.06.68-.05.91-.3L12 18.46l3.04 3.23c.19.2.46.31.73.31.06 0 .12-.01.18-.02.33-.06.61-.29.74-.6l1.04-2.53 3.51-.88c.37-.09.65-.38.73-.75a.99.99 0 0 0-.35-.99l-2.95-2.38a1.002 1.002 0 1 0-1.26 1.56l1.39 1.12-2.05.51c-.31.08-.56.3-.68.59l-.65 1.57-2.7-2.87c-.38-.4-1.08-.4-1.46 0l-2.7 2.87-.65-1.57c-.12-.29-.37-.51-.68-.59l-2.05-.51 1.39-1.12a1.002 1.002 0 1 0-1.26-1.56l-2.95 2.38c-.29.24-.43.62-.35.99.1.37.38.66.75.75zM10.79 10.21c.2.2.45.29.71.29s.51-.1.71-.29l2-2A.996.996 0 1 0 12.8 6.8l-1.3 1.29-.29-.29A.996.996 0 1 0 9.8 9.21l.99 1z"/></g></svg>