<svg id="Layer_1" style="enable-background:new 0 0 24 24" version="1.1" viewBox="0 0 24 24" xml:space="preserve" xmlns="http://www.w3.org/2000/svg"><g fill="#4c3320"><path d="m12.09 16.68-.39-.39a.996.996 0 1 0-1.41 1.41l1 1a.992.992 0 0 0 1.31.1l4-3c.44-.33.53-.96.2-1.4-.33-.44-.96-.53-1.4-.2l-3.31 2.48z"/><path d="M4 20.48V22h16v-1.52c0-1.43-.4-2.82-1.17-4.02-.3-.47-.92-.6-1.38-.31-.47.3-.6.92-.31 1.38.47.74.76 1.59.84 2.46H6.02c.24-2.8 2.6-5 5.46-5h1.04c.14 0 .27 0 .41.01a.997.997 0 1 0 .15-1.99c-.19 0-.37-.01-.56-.01h-1.04C7.36 13 4 16.36 4 20.48zM15 3h-1.59l-.71-.71A.99.99 0 0 0 12 2H9c-.55 0-1 .45-1 1v5c0 2.21 1.79 4 4 4s4-1.79 4-4V4c0-.55-.45-1-1-1zm-3 7c-1.1 0-2-.9-2-2h4c0 1.1-.9 2-2 2zm-2-4V4h1.59l.71.71c.18.18.43.29.7.29h1v1h-4z"/></g></svg>